# xmcd
#
# Track frame offsets:
#	150
#	14232
#	29330
#	43805
#	58338
#	72405
#	88002
#	102363
#	117206
#	131811
#
# Disc length: 1932 seconds
#
# Revision: 0
# Processed by: cddbd v1.5.2PL0 Copyright (c) Steve Scherf et al.
# Submitted via: EasyCDDAExtractor 16.0.6.1
#
DISCID=97078a0a
DTITLE=Συλλογικός δίσκος - Ιστορία ρεμπέτικου και λαϊκού 03-2
DYEAR=2007
DGENRE=Ποικίλη
TTITLE0=Βαμβακάρης Μάρκος - Όλοι οι ρεμπέτες του ντουνιά [Μ. Βαμβακάρης]
TTITLE1=Γενίτσαρης Μιχάλης - Εγώ μάγκας φαινόμουνα [Μ. Γενίτσαρης]
TTITLE2=Ρούκουνας Κώστας ή Σαμιωτάκης - Η Μαρίκα η δασκάλα [Παν. Τούντας]
TTITLE3=Βαμβακάρης Μάρκος-Πετρίδου Έλλη - Στο Φάληρο που πλένεσαι [Μ. Βαμβακάρ
TTITLE3=ης]
TTITLE4=Παπαϊωάννου Γιάννης - Όταν δω τα δυό σου μάτια [Γ. Παπαϊωάννου]
TTITLE5=Παπαϊωάννου Γιάννη-Σωφρονίου Δ. - Φαληριώτισα [Γ. Παπαϊωάννου]
TTITLE6=Περδικόπουλος Δημήτρης - Με λικέρ και με σαμπάνια [Β.Τσιτσάνης-Δ.Περδι
TTITLE6=κόπουλος]
TTITLE7=Περπινιάδης Στελλάκης - Είμαι παιδάκι έξυπνο [Σ. Περπινιάδης]
TTITLE8=Περπινιάδης Στελλάκης - Πασαλιμανιώτισσα [Σ. Περπινιάδης]
TTITLE9=Δελλιάς Ανέστης - Βρε μάγκα το μαχαίρι σου [Γ. Κατσαρός]
EXTD=
EXTT0=
EXTT1=
EXTT2=
EXTT3=
EXTT4=
EXTT5=
EXTT6=
EXTT7=
EXTT8=
EXTT9=
PLAYORDER=
